. 
  
http://www.torrentday.com/        :     The Hottest Private Tracker On The Net!!!
 
http://www.torrentday.com          :     Once & For all ;)


               www . TorrentDay . Com 

(((((((((((((= Enjoy No RAR releases =))))))))))))))))))))


...................................NFO:....................................

.[img]http://img820.imageshack.us/img820/1251/thewaybackdvd.jpg[/img]

[color=blue][size=5][b]The Way Back 2010 TS XViD AC3 HC-Subs Hive-CM8[/b][/size][/color]



[b]Thx Hive

CM8 Doing It Right The First Time :D

Sources:

Video: serenity thx

Audio: imagine thx

Video: 720x354 @bitrate 1600 2pass
Audio: English AC3 2.0 Stereo
Sample: yes included
Subs: yes english hardcoded for the foreign parts

Encode: 
added  brightness,sharpness,chroma,rgb,denoise and wrote subs (took 4 hours) 
and hardcoded them within. not perfect english but at least you can understand 
the first 30mins which are almost foreign only. corrected some oose spots too. 
enjoy[/b]
 
http://www.imdb.com/title/tt1023114/


General
Complete name                    : The.Way.Back.2010.TS.XViD.AC3.HC-Subs.Hive-CM8.avi
Format                           : AVI
Format/Info                      : Audio Video Interleave
File size                        : 1.63 GiB
Duration                         : 2h 4mn
Overall bit rate                 : 1 867 Kbps
Writing application              : Nandub v1.0rc2
Writing library                  : Nandub build 1853/release

Video
ID                               : 0
Format                           : MPEG-4 Visual
Format profile                   : Advanced Simple@L5
Format settings, BVOP            : Yes
Format settings, QPel            : Yes
Format settings, GMC             : No warppoints
Format settings, Matrix          : Default (H.263)
Muxing mode                      : Packed bitstream
Codec ID                         : XVID
Codec ID/Hint                    : XviD
Duration                         : 2h 4mn
Bit rate                         : 1 601 Kbps
Width                            : 720 pixels
Height                           : 354 pixels
Display aspect ratio             : 2.034
Frame rate                       : 25.000 fps
Color space                      : YUV
Chroma subsampling               : 4:2:0
Bit depth                        : 8 bits
Scan type                        : Progressive
Bits/(Pixel*Frame)               : 0.251
Stream size                      : 1.40 GiB (86%)
Writing library                  : XviD 1.2.1 (UTC 2008-12-04)

Audio
ID                               : 1
Format                           : AC-3
Format/Info                      : Audio Coding 3
Mode extension                   : CM (complete main)
Codec ID                         : 2000
Duration                         : 2h 4mn
Bit rate mode                    : Constant
Bit rate                         : 256 Kbps
Channel(s)                       : 2 channels
Channel positions                : Front: L R
Sampling rate                    : 48.0 KHz
Bit depth                        : 16 bits
Stream size                      : 229 MiB (14%)
Alignment                        : Split accross interleaves
Interleave, duration             : 40 ms (1.00 video frame)
Interleave, preload duration     : 500 ms



Valka	...  Colin Farrell
Andrei	...  Dejan Angelov
Garbage Eater #1  .... Yordan Bikov
Zoran	....  Dragos Bucur
Mongolian Horseman  ....  Sattar Dikambayev
Janusz's Wife - 1939  .....  Sally Edwards
Guard #2  .....  Valentin Ganev
Bohdan	....  Igor Gnezdilov
Lazar	......  Mariy Grigorov
Mr. Smith  .....  Ed Harris



Under cover of a night-time blizzard, seven prisoners caught up in Stalin's 
Reign of Terror escape a Soviet Gulag in 1940. They are now free men and almost 
certainly, dead men for their impending trek to safety defies any reasonable 
chance of success and the landscape they must cross is unforgiving. 




[img]http://img24.imageshack.us/img24/9863/wwwbbwbbwb.png[/img]
[img]http://img811.imageshack.us/img811/7301/94405135.png[/img]
[img]http://img203.imageshack.us/img203/3681/wbwb.png[/img]
[img]http://img141.imageshack.us/img141/5848/wwbbwb.png[/img]
[img]http://img690.imageshack.us/img690/844/wwbwbbwb.png[/img]
[img]http://img714.imageshack.us/img714/9363/wwbwbwbwwbbwbbwb.png[/img]
[img]http://img833.imageshack.us/img833/3719/wwbwbwwbbwbbwb.png[/img]
[img]http://img163.imageshack.us/img163/3373/wwbwwbbwbbwb.png[/img]




Greetz

iNK,LUSi,,MAGNET,CLASSiFiED,THC,LEGi0N,T0XiC,IMAGiNE,ViSiON,WBZ,FLAWL3SS,NOVA
Vik,Rapeseed,D2U,SAFC,goldadvance,MEMORY100,KaN1vE,Unevano,Pinnz,Wayne,Mr Hive
and all P2P groups 
Great Work Guys :D